# xmcd
#
# Track frame offsets: 
#        150
#        18647
#        35492
#        45930
#
# Disc length: 869 seconds
#
# Revision: 0
# Processed by: cddbd v1.5.1PL2 Copyright (c) Steve Scherf et al.
# Submitted via: ExactAudioCopy v0.95b3
#
DISCID=27036304
DTITLE=Angel - A Gift From An Angel
DYEAR=2004
DGENRE=Christmas/Holiday
TTITLE0=It All Started With A Child
TTITLE1=Love Is
TTITLE2=Rockin' Around The Christmas Tree
TTITLE3=Oh Holy Night
EXTD=
EXTT0=
EXTT1=
EXTT2=
EXTT3=
PLAYORDER=
